STARTFONT 2.1
COMMENT  
COMMENT  WARNING:  This bdf file was generated from an X server using
COMMENT  xbdfdump.  The resulting font is subject to the same copyright,
COMMENT  license, and trademark restrictions as the original font.  The
COMMENT  author and distributors of xbdfdump disclaim all liability for
COMMENT  misuse of the program or its output.
COMMENT  
FONT -phaisarn-angsana-bold-i-normal--14-140-75-75-p-75-tis620-0
SIZE 14 75 75
FONTBOUNDINGBOX 33 42 -10 -13
STARTPROPERTIES 26
FOUNDRY "Phaisarn"
FAMILY_NAME "Angsana"
WEIGHT_NAME "bold"
SLANT "i"
SETWIDTH_NAME "normal"
ADD_STYLE_NAME ""
PIXEL_SIZE 14
POINT_SIZE 140
RESOLUTION_X 75
RESOLUTION_Y 75
SPACING "p"
AVERAGE_WIDTH 75
CHARSET_REGISTRY "tis620"
CHARSET_ENCODING "0"
COPYRIGHT "Angsana by Pt-TITech 1997"
RAW_PIXELSIZE 1000
RAW_POINTSIZE "N"
RAW_ASCENT "CIRCUMFLEX_ACCENT"
RAW_DESCENT "RAW_FIGURE_WIDTH"
RAW_AVERAGE_WIDTH 2994
FACE_NAME "Angsana BoldInclined"
WEIGHT 10
X_HEIGHT 9
QUAD_WIDTH 12
FONT_ASCENT 25
FONT_DESCENT 10
ENDPROPERTIES
CHARS 199
STARTCHAR space
ENCODING 32
SWIDTH 342 0
DWIDTH 5 0
BBX 0 0 0 0
BITMAP
ENDCHAR
STARTCHAR exclam
ENCODING 33
SWIDTH 480 0
DWIDTH 7 0
BBX 5 13 1 0
BITMAP
08
18
18
18
10
30
20
20
20
00
e0
e0
e0
ENDCHAR
STARTCHAR quotedbl
ENCODING 34
SWIDTH 754 0
DWIDTH 11 0
BBX 7 6 3 7
BITMAP
66
ee
cc
cc
88
88
ENDCHAR
STARTCHAR numbersign
ENCODING 35
SWIDTH 617 0
DWIDTH 9 0
BBX 9 13 1 0
BITMAP
1100
1100
1100
3100
ff80
2200
2200
2200
ff80
4600
4400
4400
c400
ENDCHAR
STARTCHAR dollar
ENCODING 36
SWIDTH 617 0
DWIDTH 9 0
BBX 9 14 1 -1
BITMAP
0e00
3380
6480
6480
7400
3c00
3e00
1f00
1700
9300
a300
e600
7c00
4000
ENDCHAR
STARTCHAR percent
ENCODING 37
SWIDTH 1097 0
DWIDTH 16 0
BBX 13 14 2 -1
BITMAP
1018
6c10
4c20
cc40
c880
d900
6330
02d0
04d8
0998
1198
2190
41b0
c0e0
ENDCHAR
STARTCHAR ampersand
ENCODING 38
SWIDTH 1028 0
DWIDTH 15 0
BBX 12 13 1 0
BITMAP
0380
06c0
04c0
0cc0
0d80
0e00
1ef0
2640
6740
e780
e380
f7d0
79e0
ENDCHAR
STARTCHAR apostrophe
ENCODING 39
SWIDTH 342 0
DWIDTH 5 0
BBX 3 6 3 7
BITMAP
60
e0
c0
c0
80
80
ENDCHAR
STARTCHAR parenleft
ENCODING 40
SWIDTH 411 0
DWIDTH 6 0
BBX 7 17 1 -4
BITMAP
02
04
18
10
30
70
60
60
e0
e0
c0
c0
c0
40
40
20
20
ENDCHAR
STARTCHAR parenright
ENCODING 41
SWIDTH 411 0
DWIDTH 6 0
BBX 7 17 -2 -4
BITMAP
08
08
04
04
06
06
06
06
0e
0c
0c
1c
18
10
30
40
80
ENDCHAR
STARTCHAR asterisk
ENCODING 42
SWIDTH 617 0
DWIDTH 9 0
BBX 8 7 2 6
BITMAP
18
18
cb
ff
18
66
66
ENDCHAR
STARTCHAR plus
ENCODING 43
SWIDTH 754 0
DWIDTH 11 0
BBX 10 10 1 1
BITMAP
0800
0800
0800
0800
ffc0
0800
0800
0800
0800
0800
ENDCHAR
STARTCHAR comma
ENCODING 44
SWIDTH 342 0
DWIDTH 5 0
BBX 3 6 0 -3
BITMAP
e0
e0
e0
40
40
80
ENDCHAR
STARTCHAR minus
ENCODING 45
SWIDTH 411 0
DWIDTH 6 0
BBX 6 2 0 3
BITMAP
fc
fc
ENDCHAR
STARTCHAR period
ENCODING 46
SWIDTH 342 0
DWIDTH 5 0
BBX 3 3 0 0
BITMAP
e0
e0
e0
ENDCHAR
STARTCHAR slash
ENCODING 47
SWIDTH 342 0
DWIDTH 5 0
BBX 9 13 -1 0
BITMAP
0080
0100
0300
0200
0400
0c00
0800
1800
1000
2000
6000
4000
8000
ENDCHAR
STARTCHAR 0
ENCODING 48
SWIDTH 617 0
DWIDTH 9 0
BBX 8 13 1 0
BITMAP
0c
1a
33
33
63
63
e7
e6
c6
ce
cc
58
30
ENDCHAR
STARTCHAR 1
ENCODING 49
SWIDTH 617 0
DWIDTH 9 0
BBX 8 13 1 0
BITMAP
07
1f
06
06
0e
0c
0c
1c
18
18
38
38
fc
ENDCHAR
STARTCHAR 2
ENCODING 50
SWIDTH 617 0
DWIDTH 9 0
BBX 9 13 0 0
BITMAP
0600
1f00
1380
2180
0180
0100
0300
0600
0c00
1800
3100
7f00
fe00
ENDCHAR
STARTCHAR 3
ENCODING 51
SWIDTH 617 0
DWIDTH 9 0
BBX 9 13 0 0
BITMAP
0f00
1180
0180
0180
0300
1e00
0700
0300
0300
0300
0200
e600
f800
ENDCHAR
STARTCHAR 4
ENCODING 52
SWIDTH 617 0
DWIDTH 9 0
BBX 9 13 0 0
BITMAP
0180
0180
0300
0700
0b00
1700
2600
2600
4600
ff00
0c00
0c00
1800
ENDCHAR
STARTCHAR 5
ENCODING 53
SWIDTH 617 0
DWIDTH 9 0
BBX 9 13 1 0
BITMAP
0f80
1f80
1000
3000
3c00
1e00
0e00
0700
0600
0600
0600
ec00
f000
ENDCHAR
STARTCHAR 6
ENCODING 54
SWIDTH 617 0
DWIDTH 9 0
BBX 8 13 1 0
BITMAP
01
06
1c
38
30
7e
73
e3
e3
e6
46
6e
38
ENDCHAR
STARTCHAR 7
ENCODING 55
SWIDTH 617 0
DWIDTH 9 0
BBX 8 13 2 0
BITMAP
7f
7e
82
04
04
08
08
10
20
20
40
40
80
ENDCHAR
STARTCHAR 8
ENCODING 56
SWIDTH 617 0
DWIDTH 9 0
BBX 8 13 1 0
BITMAP
0c
1a
33
33
3a
1c
1c
6e
c6
c6
c6
4c
38
ENDCHAR
STARTCHAR 9
ENCODING 57
SWIDTH 617 0
DWIDTH 9 0
BBX 8 13 1 0
BITMAP
0c
32
33
23
63
67
67
3e
0e
0c
18
30
c0
ENDCHAR
STARTCHAR colon
ENCODING 58
SWIDTH 411 0
DWIDTH 6 0
BBX 4 9 1 0
BITMAP
30
70
30
00
00
00
c0
e0
c0
ENDCHAR
STARTCHAR semicolon
ENCODING 59
SWIDTH 411 0
DWIDTH 6 0
BBX 6 12 0 -3
BITMAP
18
1c
18
00
00
00
70
70
30
30
20
c0
ENDCHAR
STARTCHAR less
ENCODING 60
SWIDTH 754 0
DWIDTH 11 0
BBX 10 9 1 2
BITMAP
0040
03c0
0e00
3800
c000
7800
0e00
03c0
0040
ENDCHAR
STARTCHAR equal
ENCODING 61
SWIDTH 754 0
DWIDTH 11 0
BBX 10 4 1 4
BITMAP
ffc0
0000
0000
ffc0
ENDCHAR
STARTCHAR greater
ENCODING 62
SWIDTH 754 0
DWIDTH 11 0
BBX 10 9 1 2
BITMAP
8000
f000
1c00
0780
00c0
0700
1c00
f000
8000
ENDCHAR
STARTCHAR question
ENCODING 63
SWIDTH 617 0
DWIDTH 9 0
BBX 7 13 2 0
BITMAP
18
24
66
66
0e
1c
10
20
20
00
e0
e0
e0
ENDCHAR
STARTCHAR at
ENCODING 64
SWIDTH 1097 0
DWIDTH 16 0
BBX 17 17 0 -4
BITMAP
03e000
0e1800
100400
200200
61b100
437100
c66100
866100
8ce100
8cc200
8dc400
4ec880
447100
400300
300400
0c1800
03e000
ENDCHAR
STARTCHAR A
ENCODING 65
SWIDTH 891 0
DWIDTH 13 0
BBX 12 13 -1 0
BITMAP
0010
0020
0060
00e0
01e0
02e0
06e0
04e0
0fe0
10e0
20e0
40e0
e3f0
ENDCHAR
STARTCHAR B
ENCODING 66
SWIDTH 891 0
DWIDTH 13 0
BBX 12 13 0 0
BITMAP
1fc0
0e70
0e70
0c70
0ce0
1dc0
1b80
18c0
38e0
38e0
31c0
33c0
fe00
ENDCHAR
STARTCHAR C
ENCODING 67
SWIDTH 891 0
DWIDTH 13 0
BBX 12 13 1 0
BITMAP
03d0
0e70
1830
3810
7000
7000
e000
e000
e000
e000
7040
7980
1e00
ENDCHAR
STARTCHAR D
ENCODING 68
SWIDTH 960 0
DWIDTH 14 0
BBX 14 13 -1 0
BITMAP
1fe0
0738
0618
0e1c
0e1c
0c1c
1c1c
1c38
1c38
3830
3860
3bc0
ff00
ENDCHAR
STARTCHAR E
ENCODING 69
SWIDTH 891 0
DWIDTH 13 0
BBX 13 13 -1 0
BITMAP
1ff8
0618
0e08
0e20
0e20
0c40
1fc0
1c40
1840
3810
3820
38e0
ffe0
ENDCHAR
STARTCHAR F
ENCODING 70
SWIDTH 891 0
DWIDTH 13 0
BBX 14 13 0 0
BITMAP
1ffc
070c
0604
0e20
0e20
0fc0
1c40
1c40
1c00
3800
3800
3800
fc00
ENDCHAR
STARTCHAR G
ENCODING 71
SWIDTH 960 0
DWIDTH 14 0
BBX 13 13 1 0
BITMAP
01e8
0e38
1c18
3810
7008
7000
f1f0
e0e0
e0e0
60e0
71c0
39c0
0f00
ENDCHAR
STARTCHAR H
ENCODING 72
SWIDTH 1028 0
DWIDTH 15 0
BBX 17 13 -1 0
BITMAP
1fdf80
070e00
060e00
0e0e00
0e1c00
0c1c00
1ffc00
1c3800
1c3800
383800
387000
787000
fdfc00
ENDCHAR
STARTCHAR I
ENCODING 73
SWIDTH 480 0
DWIDTH 7 0
BBX 9 13 -1 0
BITMAP
1f80
0f00
0e00
0e00
0c00
0c00
1c00
1c00
1800
3800
3800
7800
fc00
ENDCHAR
STARTCHAR J
ENCODING 74
SWIDTH 617 0
DWIDTH 9 0
BBX 11 13 0 0
BITMAP
07e0
03c0
0380
0380
0700
0700
0700
0600
0e00
4e00
dc00
d800
7000
ENDCHAR
STARTCHAR K
ENCODING 75
SWIDTH 891 0
DWIDTH 13 0
BBX 15 13 -1 0
BITMAP
1fbe
0718
0730
0e40
0e80
0f80
1d80
1dc0
1dc0
38e0
38e0
38e0
fdf8
ENDCHAR
STARTCHAR L
ENCODING 76
SWIDTH 822 0
DWIDTH 12 0
BBX 12 13 -1 0
BITMAP
1f80
0f00
0e00
0e00
0e00
0c00
1c00
1c00
1800
3810
3820
38c0
ffc0
ENDCHAR
STARTCHAR M
ENCODING 77
SWIDTH 1165 0
DWIDTH 17 0
BBX 19 13 -1 0
BITMAP
1f03e0
070380
070780
0f0b80
0b0f00
0b1700
132700
13e600
13ce00
238e00
238c00
631c00
f27f00
ENDCHAR
STARTCHAR N
ENCODING 78
SWIDTH 960 0
DWIDTH 14 0
BBX 16 13 -1 0
BITMAP
1f0f
0f06
0784
0b84
0b84
09c8
11c8
10e8
10f0
2070
2070
6020
f020
ENDCHAR
STARTCHAR O
ENCODING 79
SWIDTH 960 0
DWIDTH 14 0
BBX 13 13 1 0
BITMAP
03c0
0e70
1830
3838
7038
7038
f078
e070
e070
e0e0
e1c0
7380
1e00
ENDCHAR
STARTCHAR P
ENCODING 80
SWIDTH 822 0
DWIDTH 12 0
BBX 12 13 0 0
BITMAP
1fc0
0e60
0e70
0c70
1cf0
1ce0
1f80
1800
3800
3800
3000
7000
fc00
ENDCHAR
STARTCHAR Q
ENCODING 81
SWIDTH 960 0
DWIDTH 14 0
BBX 13 17 1 -4
BITMAP
03c0
0e70
1c30
3838
7038
7038
f078
e070
e070
e0e0
e0c0
6180
3f00
0800
3008
7ff0
9fc0
ENDCHAR
STARTCHAR R
ENCODING 82
SWIDTH 891 0
DWIDTH 13 0
BBX 13 13 -1 0
BITMAP
1fe0
0730
0638
0e38
0e70
0cf0
1fc0
1dc0
1dc0
38c0
38e0
38e0
fcf8
ENDCHAR
STARTCHAR S
ENCODING 83
SWIDTH 754 0
DWIDTH 11 0
BBX 11 13 0 0
BITMAP
0f20
1ce0
3840
3840
3840
3c00
1e00
0f00
0780
8380
8380
c300
fe00
ENDCHAR
STARTCHAR T
ENCODING 84
SWIDTH 822 0
DWIDTH 12 0
BBX 12 13 2 0
BITMAP
7ff0
6730
4710
0e00
0e00
0e00
1c00
1c00
1c00
1800
3800
3800
fc00
ENDCHAR
STARTCHAR U
ENCODING 85
SWIDTH 960 0
DWIDTH 14 0
BBX 13 13 2 0
BITMAP
7e78
3c30
3820
3820
3020
7020
7040
7040
e040
e080
e080
7100
3e00
ENDCHAR
STARTCHAR V
ENCODING 86
SWIDTH 891 0
DWIDTH 13 0
BBX 12 13 2 0
BITMAP
fc70
7820
7040
7040
7080
7100
7200
7400
7400
7800
7000
6000
4000
ENDCHAR
STARTCHAR W
ENCODING 87
SWIDTH 1165 0
DWIDTH 17 0
BBX 17 13 2 0
BITMAP
fdf380
71e100
71c200
71c200
63c400
63c800
65d800
69d000
f1e000
e1c000
e18000
c10000
810000
ENDCHAR
STARTCHAR X
ENCODING 88
SWIDTH 891 0
DWIDTH 13 0
BBX 16 13 -1 0
BITMAP
1f8f
0f06
0708
0710
03a0
03c0
01c0
03c0
04e0
08e0
1070
7070
f8f8
ENDCHAR
STARTCHAR Y
ENCODING 89
SWIDTH 822 0
DWIDTH 12 0
BBX 12 13 2 0
BITMAP
fef0
3860
3840
3880
1880
1d00
1e00
1c00
1c00
1800
3800
3800
fe00
ENDCHAR
STARTCHAR Z
ENCODING 90
SWIDTH 822 0
DWIDTH 12 0
BBX 13 13 0 0
BITMAP
0ff8
1870
10e0
01e0
03c0
0380
0700
0e00
1e00
3c20
3840
71c0
ffc0
ENDCHAR
STARTCHAR bracketleft
ENCODING 91
SWIDTH 411 0
DWIDTH 6 0
BBX 9 16 0 -3
BITMAP
0780
0e00
0e00
0c00
1c00
1c00
1800
1800
3800
3000
3000
7000
6000
6000
e000
f000
ENDCHAR
STARTCHAR backslash
ENCODING 92
SWIDTH 342 0
DWIDTH 5 0
BBX 2 13 2 0
BITMAP
80
80
80
80
80
80
80
40
40
40
40
40
40
ENDCHAR
STARTCHAR bracketright
ENCODING 93
SWIDTH 411 0
DWIDTH 6 0
BBX 9 16 -2 -3
BITMAP
0780
0380
0300
0300
0700
0600
0600
0e00
0c00
0c00
1c00
1c00
1800
3800
3800
f000
ENDCHAR
STARTCHAR asciicircum
ENCODING 94
SWIDTH 754 0
DWIDTH 11 0
BBX 8 7 2 6
BITMAP
18
18
3c
24
66
42
c3
ENDCHAR
STARTCHAR underscore
ENCODING 95
SWIDTH 617 0
DWIDTH 9 0
BBX 10 1 -2 -4
BITMAP
ffc0
ENDCHAR
STARTCHAR grave
ENCODING 96
SWIDTH 411 0
DWIDTH 6 0
BBX 4 3 2 10
BITMAP
e0
20
10
ENDCHAR
STARTCHAR a
ENCODING 97
SWIDTH 617 0
DWIDTH 9 0
BBX 9 9 0 0
BITMAP
1d80
3380
6300
6700
6700
c600
ce80
ff00
6e00
ENDCHAR
STARTCHAR b
ENCODING 98
SWIDTH 617 0
DWIDTH 9 0
BBX 9 13 0 0
BITMAP
3c00
1c00
1c00
1800
3800
3f80
3980
7180
7180
6300
e300
e600
3800
ENDCHAR
STARTCHAR c
ENCODING 99
SWIDTH 548 0
DWIDTH 8 0
BBX 7 9 1 0
BITMAP
0c
32
66
40
c0
c0
c2
ec
70
ENDCHAR
STARTCHAR d
ENCODING 100
SWIDTH 617 0
DWIDTH 9 0
BBX 10 13 0 0
BITMAP
03c0
01c0
0180
0180
0f80
3300
6300
6700
e600
ce00
ce00
ff00
ee00
ENDCHAR
STARTCHAR e
ENCODING 101
SWIDTH 548 0
DWIDTH 8 0
BBX 8 9 0 0
BITMAP
0e
13
63
66
5c
e0
c1
e6
78
ENDCHAR
STARTCHAR f
ENCODING 102
SWIDTH 411 0
DWIDTH 6 0
BBX 13 17 -3 -4
BITMAP
0030
00d8
0198
0180
0380
0fc0
0300
0700
0600
0600
0e00
0e00
0c00
0c00
1800
d000
6000
ENDCHAR
STARTCHAR g
ENCODING 103
SWIDTH 617 0
DWIDTH 9 0
BBX 11 13 -1 -4
BITMAP
0e00
19e0
3180
3380
3380
1e00
2000
3800
3e00
6f00
c300
4200
3c00
ENDCHAR
STARTCHAR h
ENCODING 104
SWIDTH 754 0
DWIDTH 11 0
BBX 10 13 0 0
BITMAP
3c00
1800
1800
1800
3900
3380
3780
7b80
7300
6300
6740
e680
c700
ENDCHAR
STARTCHAR i
ENCODING 105
SWIDTH 342 0
DWIDTH 5 0
BBX 6 13 0 0
BITMAP
1c
1c
1c
00
08
78
30
70
70
60
ec
f8
e0
ENDCHAR
STARTCHAR j
ENCODING 106
SWIDTH 342 0
DWIDTH 5 0
BBX 9 17 -3 -4
BITMAP
0380
0380
0380
0000
0080
0f00
0700
0600
0600
0e00
0e00
0c00
0c00
1c00
1800
d000
6000
ENDCHAR
STARTCHAR k
ENCODING 107
SWIDTH 617 0
DWIDTH 9 0
BBX 9 13 0 0
BITMAP
3c00
1800
1800
1800
3480
3300
3200
7400
7c00
6c00
6e80
e700
c600
ENDCHAR
STARTCHAR l
ENCODING 108
SWIDTH 342 0
DWIDTH 5 0
BBX 6 13 0 0
BITMAP
3c
1c
18
38
38
30
30
70
60
60
e8
f0
e0
ENDCHAR
STARTCHAR m
ENCODING 109
SWIDTH 1028 0
DWIDTH 15 0
BBX 14 9 0 0
BITMAP
7b18
37b8
3f78
7bb8
7330
6730
6674
e678
ce70
ENDCHAR
STARTCHAR n
ENCODING 110
SWIDTH 754 0
DWIDTH 11 0
BBX 10 9 0 0
BITMAP
7b80
3780
3780
7b00
7300
6300
6740
e680
c700
ENDCHAR
STARTCHAR o
ENCODING 111
SWIDTH 617 0
DWIDTH 9 0
BBX 9 9 0 0
BITMAP
0600
1980
7180
6180
e380
c300
c700
4c00
7000
ENDCHAR
STARTCHAR p
ENCODING 112
SWIDTH 617 0
DWIDTH 9 0
BBX 11 13 -2 -4
BITMAP
1ec0
0f60
0c60
0c60
0c60
1cc0
18c0
1980
3e00
3000
3000
7000
f800
ENDCHAR
STARTCHAR q
ENCODING 113
SWIDTH 617 0
DWIDTH 9 0
BBX 9 13 0 -4
BITMAP
1d80
3380
6300
6700
c700
ce00
ce00
fe00
4c00
0c00
1c00
1c00
3e00
ENDCHAR
STARTCHAR r
ENCODING 114
SWIDTH 480 0
DWIDTH 7 0
BBX 8 9 0 0
BITMAP
7b
37
37
38
68
70
60
e0
e0
ENDCHAR
STARTCHAR s
ENCODING 115
SWIDTH 480 0
DWIDTH 7 0
BBX 7 9 0 0
BITMAP
1e
26
72
78
3c
1c
8c
c8
b0
ENDCHAR
STARTCHAR t
ENCODING 116
SWIDTH 342 0
DWIDTH 5 0
BBX 5 11 0 0
BITMAP
08
10
30
f8
60
60
60
60
c0
d0
e0
ENDCHAR
STARTCHAR u
ENCODING 117
SWIDTH 754 0
DWIDTH 11 0
BBX 9 9 1 0
BITMAP
7180
7380
7300
6300
6700
ef00
ce80
f780
c600
ENDCHAR
STARTCHAR v
ENCODING 118
SWIDTH 548 0
DWIDTH 8 0
BBX 7 9 1 0
BITMAP
e6
66
62
62
64
68
78
60
40
ENDCHAR
STARTCHAR w
ENCODING 119
SWIDTH 891 0
DWIDTH 13 0
BBX 12 9 1 0
BITMAP
e130
6330
6710
6f10
6f20
7360
63c0
4300
4200
ENDCHAR
STARTCHAR x
ENCODING 120
SWIDTH 617 0
DWIDTH 9 0
BBX 10 9 -1 0
BITMAP
3cc0
0cc0
0f00
0e00
0600
0600
0f40
f340
e380
ENDCHAR
STARTCHAR y
ENCODING 121
SWIDTH 548 0
DWIDTH 8 0
BBX 10 13 -2 -4
BITMAP
08c0
3cc0
0c40
0c40
0c40
0c80
0d00
0e00
0e00
0c00
0800
d800
e000
ENDCHAR
STARTCHAR z
ENCODING 122
SWIDTH 480 0
DWIDTH 7 0
BBX 8 10 0 -2
BITMAP
3f
3e
44
08
10
20
62
f6
34
0c
ENDCHAR
STARTCHAR braceleft
ENCODING 123
SWIDTH 480 0
DWIDTH 7 0
BBX 8 17 1 -4
BITMAP
07
0c
18
18
18
18
10
60
80
60
60
60
e0
e0
c0
c0
60
ENDCHAR
STARTCHAR bar
ENCODING 124
SWIDTH 274 0
DWIDTH 4 0
BBX 1 17 1 -4
BITMAP
80
80
80
80
80
80
80
80
80
80
80
80
80
80
80
80
80
ENDCHAR
STARTCHAR braceright
ENCODING 125
SWIDTH 480 0
DWIDTH 7 0
BBX 8 17 -2 -4
BITMAP
06
03
03
07
06
0e
0c
04
03
04
18
18
18
10
10
30
c0
ENDCHAR
STARTCHAR asciitilde
ENCODING 126
SWIDTH 754 0
DWIDTH 11 0
BBX 10 3 0 4
BITMAP
7840
9e40
8780
ENDCHAR
STARTCHAR exclamdown
ENCODING 161
SWIDTH 754 0
DWIDTH 11 0
BBX 10 12 1 0
BITMAP
1f00
3180
41c0
7cc0
70c0
70c0
70c0
6180
6180
e180
e180
e100
ENDCHAR
STARTCHAR cent
ENCODING 162
SWIDTH 822 0
DWIDTH 12 0
BBX 11 12 1 0
BITMAP
3c60
6e60
4ee0
f6e0
9ec0
6ec0
0cc0
0cc0
0dc0
1dc0
0d80
0700
ENDCHAR
STARTCHAR sterling
ENCODING 163
SWIDTH 891 0
DWIDTH 13 0
BBX 12 12 1 0
BITMAP
2630
7e30
5f70
9760
9660
b660
6660
0ee0
0ee0
0cc0
0ec0
0700
ENDCHAR
STARTCHAR currency
ENCODING 164
SWIDTH 822 0
DWIDTH 12 0
BBX 10 12 1 0
BITMAP
0f00
3f80
61c0
5cc0
e4c0
64c0
78c0
6180
6180
e180
e180
c180
ENDCHAR
STARTCHAR yen
ENCODING 165
SWIDTH 822 0
DWIDTH 12 0
BBX 11 12 1 0
BITMAP
1980
3fc0
66e0
40e0
b8e0
a4e0
e4c0
f8c0
e1c0
c1c0
c1c0
c180
ENDCHAR
STARTCHAR brokenbar
ENCODING 166
SWIDTH 960 0
DWIDTH 14 0
BBX 13 12 1 0
BITMAP
1608
3618
7f18
cb38
c730
d630
7630
6630
0e30
37f0
2c60
1820
ENDCHAR
STARTCHAR section
ENCODING 167
SWIDTH 617 0
DWIDTH 9 0
BBX 8 12 1 0
BITMAP
06
0f
13
13
0f
06
86
c6
66
36
1c
0c
ENDCHAR
STARTCHAR diaeresis
ENCODING 168
SWIDTH 754 0
DWIDTH 11 0
BBX 9 12 1 0
BITMAP
0e00
3f00
2380
7180
9980
9980
7980
3b00
3300
3300
3300
1e00
ENDCHAR
STARTCHAR copyright
ENCODING 169
SWIDTH 822 0
DWIDTH 12 0
BBX 10 12 1 0
BITMAP
0f80
3380
01c0
70c0
58c0
98c0
70c0
31c0
3180
3ec0
7240
6380
ENDCHAR
STARTCHAR ordfeminine
ENCODING 170
SWIDTH 822 0
DWIDTH 12 0
BBX 11 12 1 0
BITMAP
3860
78e0
ccc0
af00
fd80
1d80
1980
1980
1b80
1b00
3b00
7e00
ENDCHAR
STARTCHAR guillemotleft
ENCODING 171
SWIDTH 960 0
DWIDTH 14 0
BBX 13 12 1 0
BITMAP
2638
7f30
df60
97c0
9660
f660
66e0
0ee0
0ee0
0ec0
0dc0
1f80
ENDCHAR
STARTCHAR notsign
ENCODING 172
SWIDTH 1028 0
DWIDTH 15 0
BBX 14 12 1 0
BITMAP
1f04
31cc
61cc
fcdc
31d8
7198
7198
6198
63f8
95b8
9590
6310
ENDCHAR
STARTCHAR hyphen
ENCODING 173
SWIDTH 1097 0
DWIDTH 16 0
BBX 14 17 1 -5
BITMAP
1f04
63cc
41cc
f9cc
71cc
6198
6198
fb98
c798
c598
c9f0
70e0
0000
03b0
0730
0460
03c0
ENDCHAR
STARTCHAR registered
ENCODING 174
SWIDTH 891 0
DWIDTH 13 0
BBX 12 17 0 -5
BITMAP
03c0
0c70
0830
1f30
0c30
0c30
1c60
3c60
d860
9860
f160
6360
04e0
1ec0
2bc0
39c0
00c0
ENDCHAR
STARTCHAR macron
ENCODING 175
SWIDTH 891 0
DWIDTH 13 0
BBX 13 18 0 -6
BITMAP
03e0
0c38
0818
1f18
0e18
0c18
0c38
1c30
7c30
9c30
9830
7670
0870
7070
9860
bfe0
ece0
00e0
ENDCHAR
STARTCHAR degree
ENCODING 176
SWIDTH 754 0
DWIDTH 11 0
BBX 11 18 0 -6
BITMAP
0f60
13c0
1180
3f00
2180
3980
5d80
5d80
3980
1980
1f00
0f00
1200
6d00
b900
b700
d300
1e00
ENDCHAR
STARTCHAR plusminus
ENCODING 177
SWIDTH 1028 0
DWIDTH 15 0
BBX 14 12 1 0
BITMAP
2c38
7e4c
a68c
878c
a70c
ef1c
4e18
0e18
0e18
0c38
1c38
1c38
ENDCHAR
STARTCHAR twosuperior
ENCODING 178
SWIDTH 1097 0
DWIDTH 16 0
BBX 15 12 1 0
BITMAP
0902
3d86
77ce
c2cc
cfcc
d5cc
c59c
ed9c
7bf8
e3b8
e398
c118
ENDCHAR
STARTCHAR threesuperior
ENCODING 179
SWIDTH 1097 0
DWIDTH 16 0
BBX 13 12 2 0
BITMAP
3c08
6718
4318
c398
f398
6318
6310
c730
e770
d7d0
d748
2630
ENDCHAR
STARTCHAR acute
ENCODING 180
SWIDTH 822 0
DWIDTH 12 0
BBX 10 12 1 0
BITMAP
0f00
31c0
60c0
40c0
ccc0
d4c0
c5c0
cd80
7180
e180
e180
e180
ENDCHAR
STARTCHAR mu
ENCODING 181
SWIDTH 822 0
DWIDTH 12 0
BBX 10 12 1 0
BITMAP
1300
3f80
6dc0
60c0
dcc0
ddc0
c9c0
f180
f180
e180
c380
c380
ENDCHAR
STARTCHAR paragraph
ENCODING 182
SWIDTH 822 0
DWIDTH 12 0
BBX 9 12 2 0
BITMAP
1e00
6380
c380
f380
6380
6380
4300
c300
f700
d700
d700
6400
ENDCHAR
STARTCHAR periodcentered
ENCODING 183
SWIDTH 891 0
DWIDTH 13 0
BBX 11 12 2 0
BITMAP
70c0
5be0
9a60
9a60
7c60
3ce0
3cc0
38c0
38c0
70c0
70c0
61c0
ENDCHAR
STARTCHAR cedilla
ENCODING 184
SWIDTH 754 0
DWIDTH 11 0
BBX 10 12 1 0
BITMAP
1c40
3780
5b00
7800
1f00
3980
3b80
3380
3300
3300
3300
fe00
ENDCHAR
STARTCHAR onesuperior
ENCODING 185
SWIDTH 891 0
DWIDTH 13 0
BBX 11 12 2 0
BITMAP
7020
d060
90e0
98e0
70e0
30c0
30c0
30c0
3780
3b40
6240
6180
ENDCHAR
STARTCHAR masculine
ENCODING 186
SWIDTH 891 0
DWIDTH 13 0
BBX 11 12 2 0
BITMAP
7060
9860
98e0
78e0
30c0
30c0
30c0
30c0
31c0
71c0
7180
ff00
ENDCHAR
STARTCHAR guillemotright
ENCODING 187
SWIDTH 891 0
DWIDTH 13 0
BBX 12 19 2 0
BITMAP
0010
0030
0030
0070
0060
0060
0060
7060
9060
98e0
70c0
30c0
30c0
30c0
30c0
31c0
7180
6180
fe00
ENDCHAR
STARTCHAR onequarter
ENCODING 188
SWIDTH 822 0
DWIDTH 12 0
BBX 12 12 0 0
BITMAP
1c30
3470
2670
7c60
7260
6660
6660
69e0
71e0
e1c0
e0c0
c080
ENDCHAR
STARTCHAR onehalf
ENCODING 189
SWIDTH 822 0
DWIDTH 12 0
BBX 13 19 0 0
BITMAP
0008
0018
0038
0030
0030
0030
0030
1c70
3470
2460
7c60
6260
6660
6ee0
6be0
71c0
e1c0
c0c0
c080
ENDCHAR
STARTCHAR threequarters
ENCODING 190
SWIDTH 960 0
DWIDTH 14 0
BBX 13 12 2 0
BITMAP
3198
5998
99b8
dab0
7ab0
3cb0
34b0
38b0
38f0
3860
7060
7060
ENDCHAR
STARTCHAR questiondown
ENCODING 191
SWIDTH 960 0
DWIDTH 14 0
BBX 14 19 2 0
BITMAP
0004
000c
001c
0018
0018
0018
0018
7118
9938
9ab0
fab0
3cb0
34b0
34f0
38f0
38e0
70e0
70e0
6060
ENDCHAR
STARTCHAR Agrave
ENCODING 192
SWIDTH 891 0
DWIDTH 13 0
BBX 12 12 0 0
BITMAP
03c0
0c70
1070
1e30
1c70
1c70
1c60
1860
7860
9860
d0e0
60c0
ENDCHAR
STARTCHAR Aacute
ENCODING 193
SWIDTH 891 0
DWIDTH 13 0
BBX 12 12 1 0
BITMAP
3030
5870
5860
5860
38e0
10e0
10e0
30e0
7cc0
b7c0
e3c0
6180
ENDCHAR
STARTCHAR Acircumflex
ENCODING 194
SWIDTH 754 0
DWIDTH 11 0
BBX 10 12 0 0
BITMAP
1c40
3240
32c0
72c0
7cc0
60c0
3080
7980
e180
e180
e380
7f00
ENDCHAR
STARTCHAR Atilde
ENCODING 195
SWIDTH 685 0
DWIDTH 10 0
BBX 10 12 2 0
BITMAP
1cc0
7f00
c600
f000
1e00
0600
0e00
0e00
3e00
4c00
4c00
3800
ENDCHAR
STARTCHAR Adiaeresis
ENCODING 196
SWIDTH 754 0
DWIDTH 11 0
BBX 9 18 1 -6
BITMAP
1e00
6380
c180
f980
6180
6180
6380
e300
fb00
cb00
cb00
7300
0700
0600
0600
0600
0600
0600
ENDCHAR
STARTCHAR Aring
ENCODING 197
SWIDTH 754 0
DWIDTH 11 0
BBX 10 12 1 0
BITMAP
3f00
43c0
81c0
1ec0
71c0
61c0
e1c0
e180
f180
cb80
cb80
7380
ENDCHAR
STARTCHAR AE
ENCODING 198
SWIDTH 891 0
DWIDTH 13 0
BBX 12 18 0 -6
BITMAP
03e0
0c70
1830
1f30
0c30
1c30
1c60
1c60
7860
9860
9860
60e0
00e0
00c0
00c0
00c0
00c0
01c0
ENDCHAR
STARTCHAR Ccedilla
ENCODING 199
SWIDTH 685 0
DWIDTH 10 0
BBX 8 12 2 0
BITMAP
3e
c7
83
03
03
07
07
06
1e
26
26
18
ENDCHAR
STARTCHAR Egrave
ENCODING 200
SWIDTH 822 0
DWIDTH 12 0
BBX 11 12 1 0
BITMAP
1e60
63c0
41c0
99c0
e7c0
e5c0
7980
6180
6180
e380
e380
c300
ENDCHAR
STARTCHAR Eacute
ENCODING 201
SWIDTH 891 0
DWIDTH 13 0
BBX 11 12 2 0
BITMAP
7060
9860
98e0
78e0
38c0
3ec0
39c0
3ec0
31c0
7180
6180
ff00
ENDCHAR
STARTCHAR Ecircumflex
ENCODING 202
SWIDTH 822 0
DWIDTH 12 0
BBX 12 12 1 0
BITMAP
1fb0
63f0
c1e0
1ec0
71c0
61c0
61c0
e180
f180
cb80
cb80
7380
ENDCHAR
STARTCHAR Ediaeresis
ENCODING 203
SWIDTH 891 0
DWIDTH 13 0
BBX 11 12 2 0
BITMAP
7060
90a0
98a0
98c0
79c0
32c0
3cc0
38c0
30c0
30c0
71c0
6180
ENDCHAR
STARTCHAR Igrave
ENCODING 204
SWIDTH 1165 0
DWIDTH 17 0
BBX 15 12 2 0
BITMAP
3166
719c
9b9c
93f8
7530
3570
3570
39e0
39e0
30e0
70e0
60e0
ENDCHAR
STARTCHAR Iacute
ENCODING 205
SWIDTH 754 0
DWIDTH 11 0
BBX 9 12 1 0
BITMAP
1e00
6300
c180
3980
6d80
6980
f180
e380
c300
c300
e600
3800
ENDCHAR
STARTCHAR Icircumflex
ENCODING 206
SWIDTH 754 0
DWIDTH 11 0
BBX 10 12 1 0
BITMAP
1ec0
6380
4380
3f80
0180
3180
4b80
cb00
f300
c300
c600
3800
ENDCHAR
STARTCHAR Idiaeresis
ENCODING 207
SWIDTH 891 0
DWIDTH 13 0
BBX 10 12 3 0
BITMAP
03c0
07c0
05c0
6580
8980
8980
f180
0380
0380
0300
0300
0300
ENDCHAR
STARTCHAR ETH
ENCODING 208
SWIDTH 685 0
DWIDTH 10 0
BBX 9 11 1 0
BITMAP
3180
4980
5b00
3c00
0000
0000
6300
b300
9200
9e00
7800
ENDCHAR
STARTCHAR Ntilde
ENCODING 209
SWIDTH 0 0
DWIDTH 0 0
BBX 10 5 -6 13
BITMAP
60c0
b080
9180
6300
3c00
ENDCHAR
STARTCHAR Ograve
ENCODING 210
SWIDTH 548 0
DWIDTH 8 0
BBX 6 12 2 0
BITMAP
78
9c
0c
0c
0c
0c
18
18
18
18
18
38
ENDCHAR
STARTCHAR Oacute
ENCODING 211
SWIDTH 548 0
DWIDTH 8 0
BBX 13 18 -5 0
BITMAP
3000
c800
8800
c800
7000
0000
00f0
0138
0018
0018
0018
0018
0030
0030
0030
0030
0030
0070
ENDCHAR
STARTCHAR Ocircumflex
ENCODING 212
SWIDTH 0 0
DWIDTH 0 0
BBX 9 5 -9 13
BITMAP
1e00
3f00
6180
fe80
0180
ENDCHAR
STARTCHAR Otilde
ENCODING 213
SWIDTH 0 0
DWIDTH 0 0
BBX 10 6 -9 13
BITMAP
00c0
1ec0
3fc0
6180
fe80
0180
ENDCHAR
STARTCHAR Odiaeresis
ENCODING 214
SWIDTH 0 0
DWIDTH 0 0
BBX 10 7 -9 13
BITMAP
0180
0140
1f40
3f80
6100
fe80
0180
ENDCHAR
STARTCHAR multiply
ENCODING 215
SWIDTH 0 0
DWIDTH 0 0
BBX 10 7 -8 13
BITMAP
06c0
06c0
3fc0
61c0
4080
fe80
0180
ENDCHAR
STARTCHAR Ooblique
ENCODING 216
SWIDTH 0 0
DWIDTH 0 0
BBX 5 5 -8 -6
BITMAP
70
98
78
38
38
ENDCHAR
STARTCHAR Ugrave
ENCODING 217
SWIDTH 0 0
DWIDTH 0 0
BBX 7 5 -10 -6
BITMAP
66
96
ee
2c
3c
ENDCHAR
STARTCHAR Uacute
ENCODING 218
SWIDTH 0 0
DWIDTH 0 0
BBX 3 3 -5 -4
BITMAP
60
e0
c0
ENDCHAR
STARTCHAR Ucircumflex
ENCODING 219
SWIDTH 411 0
DWIDTH 6 0
BBX 0 0 0 0
BITMAP
ENDCHAR
STARTCHAR Udiaeresis
ENCODING 220
SWIDTH 411 0
DWIDTH 6 0
BBX 6 3 0 -3
BITMAP
7c
fc
84
ENDCHAR
STARTCHAR ssharp
ENCODING 223
SWIDTH 891 0
DWIDTH 13 0
BBX 12 16 0 -1
BITMAP
0080
0080
3fc0
1ff0
1df0
1d70
1d60
1f80
1be0
3b70
3a70
3a60
3ae0
7f80
ff00
0600
ENDCHAR
STARTCHAR agrave
ENCODING 224
SWIDTH 342 0
DWIDTH 5 0
BBX 4 12 0 0
BITMAP
10
30
30
30
70
70
60
60
70
90
d0
60
ENDCHAR
STARTCHAR aacute
ENCODING 225
SWIDTH 685 0
DWIDTH 10 0
BBX 11 12 0 0
BITMAP
1040
30c0
30c0
30c0
71c0
71c0
6180
6180
71c0
9240
d340
6180
ENDCHAR
STARTCHAR acircumflex
ENCODING 226
SWIDTH 480 0
DWIDTH 7 0
BBX 9 20 1 0
BITMAP
1880
3f00
c600
7000
3800
1c00
0c00
1c00
1800
1800
1800
1800
1800
3800
3800
3000
3800
4800
6800
3000
ENDCHAR
STARTCHAR atilde
ENCODING 227
SWIDTH 480 0
DWIDTH 7 0
BBX 6 20 1 0
BITMAP
38
7c
ac
ac
ec
4c
1c
18
18
18
18
18
38
30
30
30
30
48
48
30
ENDCHAR
STARTCHAR adiaeresis
ENCODING 228
SWIDTH 548 0
DWIDTH 8 0
BBX 8 20 1 0
BITMAP
c6
4b
5b
db
d7
d6
f6
66
06
0e
0e
0e
0c
1c
1c
1c
1c
22
24
18
ENDCHAR
STARTCHAR aring
ENCODING 229
SWIDTH 617 0
DWIDTH 9 0
BBX 6 18 2 -6
BITMAP
78
9c
0c
0c
0c
0c
18
18
18
18
18
38
38
30
30
30
70
70
ENDCHAR
STARTCHAR ae
ENCODING 230
SWIDTH 685 0
DWIDTH 10 0
BBX 8 18 1 -6
BITMAP
26
7f
5b
83
93
d7
67
06
06
06
06
0e
0e
0c
0c
0c
0c
1c
ENDCHAR
STARTCHAR ccedilla
ENCODING 231
SWIDTH 0 0
DWIDTH 0 0
BBX 8 6 -6 13
BITMAP
07
7c
c0
8c
ac
5c
ENDCHAR
STARTCHAR egrave
ENCODING 232
SWIDTH 0 0
DWIDTH 0 0
BBX 2 4 -1 22
BITMAP
c0
c0
80
80
ENDCHAR
STARTCHAR eacute
ENCODING 233
SWIDTH 0 0
DWIDTH 0 0
BBX 6 4 -3 22
BITMAP
6c
a8
f8
e0
ENDCHAR
STARTCHAR ecircumflex
ENCODING 234
SWIDTH 0 0
DWIDTH 0 0
BBX 9 6 -3 23
BITMAP
0180
6d80
7d00
9500
b600
6800
ENDCHAR
STARTCHAR ediaeresis
ENCODING 235
SWIDTH 0 0
DWIDTH 0 0
BBX 5 5 -3 23
BITMAP
30
20
f8
f8
60
ENDCHAR
STARTCHAR igrave
ENCODING 236
SWIDTH 0 0
DWIDTH 0 0
BBX 4 6 -1 21
BITMAP
10
10
60
80
a0
c0
ENDCHAR
STARTCHAR iacute
ENCODING 237
SWIDTH 0 0
DWIDTH 0 0
BBX 4 5 -4 13
BITMAP
60
b0
90
90
60
ENDCHAR
STARTCHAR icircumflex
ENCODING 238
SWIDTH 0 0
DWIDTH 0 0
BBX 7 6 -3 14
BITMAP
0e
30
18
70
c0
f0
ENDCHAR
STARTCHAR idiaeresis
ENCODING 239
SWIDTH 685 0
DWIDTH 10 0
BBX 9 9 1 1
BITMAP
1e00
2100
4e80
9e80
9e80
9e80
9d00
6200
1c00
ENDCHAR
STARTCHAR eth
ENCODING 240
SWIDTH 754 0
DWIDTH 11 0
BBX 9 8 1 0
BITMAP
1c00
3300
6180
c180
c180
c300
6600
1c00
ENDCHAR
STARTCHAR ntilde
ENCODING 241
SWIDTH 685 0
DWIDTH 10 0
BBX 8 8 1 0
BITMAP
1c
3e
43
d9
f9
5a
76
0c
ENDCHAR
STARTCHAR ograve
ENCODING 242
SWIDTH 1028 0
DWIDTH 15 0
BBX 13 13 1 0
BITMAP
7000
7000
7000
7000
6000
6390
67f8
ec58
ca58
cb50
c690
e020
7fc0
ENDCHAR
STARTCHAR oacute
ENCODING 243
SWIDTH 960 0
DWIDTH 14 0
BBX 12 8 1 0
BITMAP
1cc0
3fe0
6330
c230
9230
ba60
bc40
7480
ENDCHAR
STARTCHAR ocircumflex
ENCODING 244
SWIDTH 960 0
DWIDTH 14 0
BBX 14 13 1 0
BITMAP
000c
000c
0018
0060
0780
1c00
7180
67c0
c780
c600
c300
7ff0
7860
ENDCHAR
STARTCHAR otilde
ENCODING 245
SWIDTH 1028 0
DWIDTH 15 0
BBX 14 13 1 0
BITMAP
000c
030c
0488
0498
07e0
0700
1c40
71e0
63e0
c3c0
c300
c380
7ee0
ENDCHAR
STARTCHAR odiaeresis
ENCODING 246
SWIDTH 685 0
DWIDTH 10 0
BBX 8 13 1 0
BITMAP
80
c0
40
40
40
7c
c7
03
c3
e3
c6
84
78
ENDCHAR
STARTCHAR division
ENCODING 247
SWIDTH 1028 0
DWIDTH 15 0
BBX 13 13 1 0
BITMAP
0060
0060
0070
0030
0018
1998
7fd8
66d0
c2f0
c0a0
dce0
7dc0
3180
ENDCHAR
STARTCHAR oslash
ENCODING 248
SWIDTH 1028 0
DWIDTH 15 0
BBX 14 13 1 0
BITMAP
000c
000c
000c
0008
0018
1e30
3fe0
61c0
c000
d8c0
fce0
6640
23c0
ENDCHAR
STARTCHAR ugrave
ENCODING 249
SWIDTH 754 0
DWIDTH 11 0
BBX 11 13 1 0
BITMAP
0020
0060
1fc0
3f80
3000
1f80
3f00
7000
4700
c700
c300
e200
3c00
ENDCHAR
STARTCHAR uacute
ENCODING 250
SWIDTH 960 0
DWIDTH 14 0
BBX 13 12 1 0
BITMAP
03d8
0398
0598
7590
8990
99b0
63b0
0330
0330
0320
0360
0360
ENDCHAR
STARTCHAR ucircumflex
ENCODING 251
SWIDTH 1645 0
DWIDTH 24 0
BBX 22 11 1 0
BITMAP
1f0000
210000
400000
400000
800000
804884
80dd88
80b6d8
c12470
430000
3c0000
ENDCHAR
STARTCHAR udiaeresis
ENCODING 252
SWIDTH 0 0
DWIDTH 0 0
BBX 5 6 -8 -13
BITMAP
70
98
d8
78
38
38
ENDCHAR
STARTCHAR yacute
ENCODING 253
SWIDTH 0 0
DWIDTH 0 0
BBX 7 5 -10 -12
BITMAP
66
9e
ee
2c
7c
ENDCHAR
STARTCHAR thorn
ENCODING 254
SWIDTH 0 0
DWIDTH 0 0
BBX 3 3 -7 -10
BITMAP
60
e0
c0
ENDCHAR
STARTCHAR C000400
ENCODING 256
SWIDTH 342 0
DWIDTH 5 0
BBX 0 0 0 0
BITMAP
ENDCHAR
STARTCHAR C000401
ENCODING 257
SWIDTH 342 0
DWIDTH 5 0
BBX 0 0 0 0
BITMAP
ENDCHAR
STARTCHAR C000430
ENCODING 280
SWIDTH 342 0
DWIDTH 5 0
BBX 0 0 0 0
BITMAP
ENDCHAR
STARTCHAR C001103
ENCODING 579
SWIDTH 617 0
DWIDTH 9 0
BBX 10 1 0 4
BITMAP
ffc0
ENDCHAR
STARTCHAR C001104
ENCODING 580
SWIDTH 1302 0
DWIDTH 19 0
BBX 19 1 0 4
BITMAP
ffffe0
ENDCHAR
STARTCHAR C001107
ENCODING 583
SWIDTH 411 0
DWIDTH 6 0
BBX 4 6 3 7
BITMAP
30
40
40
e0
e0
e0
ENDCHAR
STARTCHAR C001110
ENCODING 584
SWIDTH 411 0
DWIDTH 6 0
BBX 4 6 3 7
BITMAP
70
70
70
20
20
c0
ENDCHAR
STARTCHAR C001113
ENCODING 587
SWIDTH 617 0
DWIDTH 9 0
BBX 8 6 2 7
BITMAP
33
44
44
ec
ee
ee
ENDCHAR
STARTCHAR C001114
ENCODING 588
SWIDTH 617 0
DWIDTH 9 0
BBX 8 6 2 7
BITMAP
77
77
37
22
22
cc
ENDCHAR
STARTCHAR C001115
ENCODING 589
SWIDTH 617 0
DWIDTH 9 0
BBX 7 6 0 -3
BITMAP
ec
ee
6e
44
44
98
ENDCHAR
STARTCHAR C001121
ENCODING 593
SWIDTH 480 0
DWIDTH 7 0
BBX 5 5 1 4
BITMAP
70
f8
f8
f8
70
ENDCHAR
STARTCHAR C001122
ENCODING 594
SWIDTH 1302 0
DWIDTH 19 0
BBX 15 3 2 0
BITMAP
e38e
e38e
e38e
ENDCHAR
ENDFONT
